<svg width="33" height="54" viewBox="0 0 33 54" fill="none" xmlns="http://www.w3.org/2000/svg">
<circle cx="16" cy="27" r="15" stroke="white" stroke-opacity="0.45" stroke-width="2"/>
<path d="M20 27.5312L15.75 31.7812C15.6042 31.9271 15.4271 32 15.2188 32C15.0104 32 14.8333 31.9271 14.6875 31.7812L14 31.0625C13.8542 30.9167 13.7812 30.7396 13.7812 30.5312C13.7812 30.3229 13.8542 30.1458 14 30L17 27L14 24C13.8542 23.8542 13.7812 23.6771 13.7812 23.4688C13.7812 23.2604 13.8542 23.0833 14 22.9375L14.6875 22.2188C14.8333 22.0729 15.0104 22 15.2188 22C15.4271 22 15.6042 22.0729 15.75 22.2188L20 26.4688C20.1458 26.6146 20.2188 26.7917 20.2188 27C20.2188 27.2083 20.1458 27.3854 20 27.5312Z" fill="white"/>
</svg>
