<svg width="33" height="54" viewBox="0 0 33 54" fill="none" xmlns="http://www.w3.org/2000/svg">
<circle cx="17" cy="27" r="15" stroke="white" stroke-opacity="0.45" stroke-width="2"/>
<path d="M13 26.4688L17.25 22.2188C17.3958 22.0729 17.5729 22 17.7812 22C17.9896 22 18.1667 22.0729 18.3125 22.2188L19 22.9375C19.1458 23.0833 19.2188 23.2604 19.2188 23.4688C19.2188 23.6771 19.1458 23.8438 19 23.9688L16 27L19 30C19.1458 30.1458 19.2188 30.3229 19.2188 30.5312C19.2188 30.7396 19.1458 30.9167 19 31.0625L18.3125 31.7812C18.1667 31.9271 17.9896 32 17.7812 32C17.5729 32 17.3958 31.9271 17.25 31.7812L13 27.5312C12.8542 27.3854 12.7812 27.2083 12.7812 27C12.7812 26.7917 12.8542 26.6146 13 26.4688Z" fill="white"/>
</svg>
