<svg width="28" height="18" viewBox="0 0 28 18" fill="none" xmlns="http://www.w3.org/2000/svg">
<path opacity="0.5" d="M26.7198 7.875C25.3761 5.59375 23.548 3.78125 21.2355 2.4375C18.8917 1.0625 16.3292 0.375 13.548 0.375C10.7667 0.375 8.20422 1.0625 5.86047 2.4375C3.54797 3.78125 1.71985 5.59375 0.376099 7.875C0.157349 8.21875 0.0479736 8.59375 0.0479736 9C0.0479736 9.40625 0.157349 9.78125 0.376099 10.125C1.71985 12.4062 3.54797 14.2188 5.86047 15.5625C8.20422 16.9375 10.7667 17.625 13.548 17.625C16.3292 17.625 18.8917 16.9375 21.2355 15.5625C23.548 14.2188 25.3761 12.4062 26.7198 10.125C26.9386 9.78125 27.048 9.40625 27.048 9C27.048 8.59375 26.9386 8.21875 26.7198 7.875ZM13.548 15.375C12.3917 15.375 11.3292 15.0938 10.3605 14.5312C9.39172 13.9375 8.61047 13.1562 8.01672 12.1875C7.45422 11.2188 7.17297 10.1562 7.17297 9C7.17297 7.84375 7.45422 6.78125 8.01672 5.8125C8.61047 4.84375 9.39172 4.07812 10.3605 3.51562C11.3292 2.92188 12.3917 2.625 13.548 2.625C14.7042 2.625 15.7667 2.92188 16.7355 3.51562C17.7042 4.07812 18.4698 4.84375 19.0323 5.8125C19.6261 6.78125 19.923 7.84375 19.923 9C19.923 10.1562 19.6261 11.2188 19.0323 12.1875C18.4698 13.1562 17.7042 13.9375 16.7355 14.5312C15.7667 15.0938 14.7042 15.375 13.548 15.375ZM18.423 9C18.423 10.3438 17.9386 11.5 16.9698 12.4688C16.0323 13.4062 14.8917 13.875 13.548 13.875C12.2042 13.875 11.048 13.4062 10.0792 12.4688C9.14172 11.5 8.67297 10.3438 8.67297 9C8.67297 8.1875 8.86047 7.42188 9.23547 6.70312C9.23547 7.26562 9.42297 7.75 9.79797 8.15625C10.2042 8.53125 10.6886 8.71875 11.2511 8.71875C11.8136 8.71875 12.2823 8.53125 12.6573 8.15625C13.0636 7.75 13.2667 7.26562 13.2667 6.70312C13.2667 6.14062 13.0636 5.67188 12.6573 5.29688C12.2823 4.89062 11.8136 4.6875 11.2511 4.6875C11.9698 4.3125 12.7355 4.125 13.548 4.125C14.8917 4.125 16.0323 4.60938 16.9698 5.57812C17.9386 6.51562 18.423 7.65625 18.423 9Z" fill="white"/>
</svg>
