<svg width="36" height="36" viewBox="0 0 36 36" fill="none" xmlns="http://www.w3.org/2000/svg">
<path d="M32.6419 15.471L30.0308 15.1448C29.7268 13.8616 29.2182 12.6358 28.5244 11.5144L30.1421 9.43426C30.5245 8.94407 30.7144 8.33101 30.6762 7.71052C30.638 7.09002 30.3743 6.5049 29.9347 6.06531C29.4951 5.62573 28.91 5.362 28.2895 5.3238C27.669 5.2856 27.056 5.47555 26.5658 5.85789L24.4856 7.47564C23.3642 6.78184 22.1384 6.2732 20.8553 5.96926L20.529 3.35814C20.4572 2.73717 20.1596 2.16427 19.6929 1.74842C19.2262 1.33256 18.6229 1.10278 17.9978 1.10278C17.3727 1.10278 16.7694 1.33256 16.3026 1.74842C15.8359 2.16427 15.5383 2.73717 15.4665 3.35814L15.1403 5.96926C13.8571 6.2732 12.6313 6.78184 11.5099 7.47564L9.43426 5.85789C8.94407 5.47555 8.33101 5.2856 7.71052 5.3238C7.09002 5.362 6.5049 5.62573 6.06531 6.06531C5.62573 6.5049 5.362 7.09002 5.3238 7.71052C5.2856 8.33101 5.47555 8.94407 5.85789 9.43426L7.47564 11.5144C6.78184 12.6358 6.2732 13.8616 5.96926 15.1448L3.35814 15.471C2.73717 15.5428 2.16427 15.8404 1.74842 16.3071C1.33256 16.7739 1.10278 17.3772 1.10278 18.0023C1.10278 18.6274 1.33256 19.2307 1.74842 19.6974C2.16427 20.1641 2.73717 20.4617 3.35814 20.5335L5.96926 20.8598C6.2732 22.1429 6.78184 23.3687 7.47564 24.4901L5.85789 26.5658C5.47555 27.056 5.2856 27.669 5.3238 28.2895C5.362 28.91 5.62573 29.4951 6.06531 29.9347C6.5049 30.3743 7.09002 30.638 7.71052 30.6762C8.33101 30.7144 8.94407 30.5245 9.43426 30.1421L11.5144 28.5244C12.6358 29.2182 13.8616 29.7268 15.1448 30.0308L15.471 32.6419C15.5428 33.2629 15.8404 33.8358 16.3071 34.2516C16.7739 34.6675 17.3772 34.8972 18.0023 34.8972C18.6274 34.8972 19.2307 34.6675 19.6974 34.2516C20.1641 33.8358 20.4617 33.2629 20.5335 32.6419L20.8598 30.0308C22.1429 29.7268 23.3687 29.2182 24.4901 28.5244L26.5703 30.1421C27.0605 30.5245 27.6735 30.7144 28.294 30.6762C28.9145 30.638 29.4996 30.3743 29.9392 29.9347C30.3788 29.4951 30.6425 28.91 30.6807 28.2895C30.7189 27.669 30.529 27.056 30.1466 26.5658L28.5289 24.4856C29.2227 23.3642 29.7313 22.1384 30.0353 20.8553L32.6464 20.529C33.2674 20.4572 33.8403 20.1596 34.2561 19.6929C34.672 19.2262 34.9017 18.6229 34.9017 17.9978C34.9017 17.3727 34.672 16.7694 34.2561 16.3026C33.8403 15.8359 33.2674 15.5383 32.6464 15.4665L32.6419 15.471Z" stroke="white" stroke-width="2" stroke-miterlimit="10" stroke-linecap="square"/>
</svg>
