<svg width="32" height="32" viewBox="0 0 32 32" fill="none" xmlns="http://www.w3.org/2000/svg">
<path fill-rule="evenodd" clip-rule="evenodd" d="M31.4128 28.7407L22.6516 19.9761C24.2221 17.8342 25.0634 15.2446 25.0516 12.5887C25.0217 5.6558 19.4142 0.0401701 12.4814 0.000127355C9.1636 -0.0148836 5.97764 1.29763 3.63321 3.64527C1.28879 5.99292 -0.0193484 9.18068 0.000216343 12.4984C0.0301814 19.4319 5.63816 25.0481 12.5716 25.0881C15.2384 25.0997 17.8374 24.2486 19.9808 22.6618L19.9899 22.655L28.7431 31.4127C29.2163 31.9092 29.9215 32.1102 30.5854 31.9377C31.2493 31.7653 31.7675 31.2466 31.9394 30.5826C32.1112 29.9185 31.9097 29.2135 31.4128 28.7407ZM12.5624 22.5783C7.01593 22.5464 2.52962 18.054 2.50527 12.5074C2.4903 9.8536 3.53689 7.3039 5.41208 5.42592C7.28727 3.54795 9.8354 2.49756 12.4893 2.50858C18.0357 2.54049 22.5221 7.03292 22.5464 12.5794C22.5614 15.2333 21.5148 17.783 19.6396 19.661C17.7644 21.5389 15.2163 22.5893 12.5624 22.5783Z" fill="white" fill-opacity="0.5"/>
</svg>
