<svg width="580" height="428" viewBox="0 0 580 428" fill="none" xmlns="http://www.w3.org/2000/svg">
<g clip-path="url(#clip0)">
<path d="M336.985 64.1085C299.803 62.8181 264.387 50.7873 230.573 37.6357C196.758 24.4842 163.257 9.90845 126.968 2.93679C103.625 -1.54647 76.9292 -2.16857 58.1228 10.3558C40.0196 22.4174 34.1734 43.2604 31.0322 62.5661C28.666 77.1059 27.275 92.3859 33.7525 106.016C38.2539 115.46 46.2456 123.404 51.7736 132.452C70.9957 163.948 57.4196 202.781 36.5704 233.526C26.8182 247.953 15.4594 261.711 7.91943 277.068C0.379436 292.426 -3.11083 310.014 3.48475 325.675C10.029 341.201 25.612 352.862 42.4936 361.062C76.7854 377.72 117.196 382.492 156.6 385.191C243.831 391.145 331.523 388.574 418.98 386.003C451.347 385.042 483.853 384.07 515.697 379.057C533.374 376.276 551.626 371.859 564.458 361.191C580.754 347.649 584.794 324.718 573.871 307.721C555.557 279.243 504.913 272.169 492.112 241.603C485.064 224.781 492.302 206.041 502.541 190.437C524.509 156.961 561.332 127.599 563.272 89.3371C564.606 63.0597 546.904 36.7411 519.536 24.3094C490.844 11.2761 451.065 12.9161 429.898 34.4892C408.114 56.705 369.814 65.2499 336.985 64.1085Z" fill="url(#paint0_linear)"/>
<path d="M340.906 388.629L240.818 387.344L241.111 384.773L245.951 342.357H333.849L340.316 384.773L340.809 387.986L340.906 388.629Z" fill="#D0D2D5"/>
<path opacity="0.1" d="M340.809 387.986H290.862L240.818 387.344L241.111 384.773H340.316L340.809 387.986Z" fill="black"/>
<path d="M356.946 385.416H224.137V388.629H356.946V385.416Z" fill="#D0D2D5"/>
<path d="M483.658 87.5931C483.664 86.4946 483.453 85.4058 483.038 84.3888C482.624 83.3719 482.013 82.4467 481.241 81.6661C480.47 80.8855 479.552 80.2648 478.541 79.8395C477.53 79.4141 476.445 79.1924 475.348 79.187H104.451C103.354 79.1917 102.269 79.4129 101.257 79.838C100.245 80.2631 99.3271 80.8836 98.5549 81.6643C97.7827 82.4449 97.1717 83.3704 96.7566 84.3876C96.3416 85.4049 96.1308 86.4942 96.1362 87.5931V312.784H483.658V87.5931Z" fill="#444053"/>
<path d="M96.1362 310.548V336.923C96.1362 339.132 97.0123 341.25 98.5717 342.812C100.131 344.374 102.246 345.252 104.451 345.252H475.348C477.553 345.251 479.666 344.372 481.225 342.811C482.783 341.249 483.658 339.131 483.658 336.923V310.548H96.1362Z" fill="#D0D2D5"/>
<path opacity="0.1" d="M469.543 93.3257H112.176V295.766H469.543V93.3257Z" fill="#11ABEB"/>
<path d="M291.822 335.242C293.134 335.242 294.43 334.945 295.61 334.371C296.791 333.798 297.826 332.963 298.638 331.93C298.885 331.615 299.109 331.284 299.311 330.938L294.558 330.157L299.69 330.198C300.186 329.123 300.455 327.958 300.484 326.775C300.512 325.592 300.298 324.416 299.855 323.319L292.961 326.918L299.321 322.239C298.723 321.212 297.922 320.32 296.965 319.616C296.009 318.913 294.919 318.414 293.762 318.15C292.605 317.886 291.407 317.864 290.241 318.083C289.075 318.303 287.966 318.76 286.984 319.426C286.002 320.093 285.167 320.955 284.531 321.958C283.895 322.961 283.471 324.084 283.287 325.258C283.102 326.432 283.161 327.632 283.458 328.782C283.755 329.932 284.286 331.009 285.016 331.946C285.828 332.975 286.862 333.806 288.041 334.377C289.22 334.948 290.513 335.243 291.822 335.242Z" fill="#11ABEB"/>
<path opacity="0.1" d="M300.486 345.252L340.414 385.416L334.29 345.252H300.486Z" fill="black"/>
<path d="M355.905 129.85H124.007C123.27 129.85 122.673 130.448 122.673 131.187V269.386C122.673 270.124 123.27 270.723 124.007 270.723H355.905C356.642 270.723 357.239 270.124 357.239 269.386V131.187C357.239 130.448 356.642 129.85 355.905 129.85Z" fill="white"/>
<path d="M469.646 93.3462H112.407V105.171H469.646V93.3462Z" fill="white"/>
<path d="M123.812 95.4028H114.347C114.126 95.4028 113.947 95.5824 113.947 95.8039V102.2C113.947 102.421 114.126 102.601 114.347 102.601H123.812C124.033 102.601 124.212 102.421 124.212 102.2V95.8039C124.212 95.5824 124.033 95.4028 123.812 95.4028Z" fill="#11ABEB"/>
<path opacity="0.3" d="M343.596 95.4028H236.404C236.239 95.4028 236.106 95.5363 236.106 95.701V102.303C236.106 102.467 236.239 102.601 236.404 102.601H343.596C343.76 102.601 343.894 102.467 343.894 102.303V95.701C343.894 95.5363 343.76 95.4028 343.596 95.4028Z" fill="#11ABEB"/>
<path d="M340.696 99.7422H340.434L340.337 99.66C340.666 99.2685 340.848 98.7735 340.85 98.2615C340.847 97.841 340.72 97.4308 340.484 97.0827C340.248 96.7346 339.915 96.4642 339.526 96.3056C339.138 96.147 338.71 96.1073 338.299 96.1916C337.888 96.2759 337.511 96.4803 337.215 96.7791C336.92 97.0779 336.719 97.4577 336.639 97.8705C336.559 98.2833 336.603 98.7106 336.765 99.0986C336.927 99.4865 337.2 99.8177 337.55 100.05C337.9 100.283 338.31 100.406 338.73 100.405C339.241 100.402 339.735 100.22 340.126 99.8913L340.224 99.9736V100.241L341.866 101.886L342.379 101.372L340.696 99.7422ZM338.725 99.7422C338.431 99.7433 338.144 99.6568 337.899 99.494C337.654 99.3311 337.463 99.0991 337.35 98.8274C337.237 98.5557 337.208 98.2565 337.265 97.9678C337.322 97.6791 337.463 97.4138 337.671 97.2057C337.879 96.9976 338.144 96.856 338.432 96.7988C338.72 96.7417 339.019 96.7715 339.29 96.8846C339.561 96.9977 339.793 97.189 339.955 97.4341C340.118 97.6792 340.204 97.9672 340.203 98.2615C340.205 98.4564 340.167 98.6495 340.093 98.8298C340.02 99.01 339.911 99.1738 339.773 99.3116C339.636 99.4494 339.472 99.5584 339.292 99.6323C339.112 99.7062 338.919 99.7436 338.725 99.7422Z" fill="#444053"/>
<path d="M464.513 102.601C466.498 102.601 468.106 100.989 468.106 99.0018C468.106 97.0141 466.498 95.4028 464.513 95.4028C462.529 95.4028 460.921 97.0141 460.921 99.0018C460.921 100.989 462.529 102.601 464.513 102.601Z" fill="#11ABEB"/>
<path d="M406.293 118.025H375.424C374.735 118.025 374.177 118.584 374.177 119.274V139.397C374.177 140.087 374.735 140.647 375.424 140.647H406.293C406.981 140.647 407.54 140.087 407.54 139.397V119.274C407.54 118.584 406.981 118.025 406.293 118.025Z" fill="white"/>
<path d="M459.068 118.025H416.579C416.406 118.025 416.266 118.165 416.266 118.338V121.31C416.266 121.483 416.406 121.624 416.579 121.624H459.068C459.24 121.624 459.381 121.483 459.381 121.31V118.338C459.381 118.165 459.24 118.025 459.068 118.025Z" fill="white"/>
<path d="M459.068 125.737H416.579C416.406 125.737 416.266 125.877 416.266 126.05V129.022C416.266 129.195 416.406 129.336 416.579 129.336H459.068C459.24 129.336 459.381 129.195 459.381 129.022V126.05C459.381 125.877 459.24 125.737 459.068 125.737Z" fill="white"/>
<path d="M459.068 133.449H416.579C416.406 133.449 416.266 133.589 416.266 133.762V136.734C416.266 136.907 416.406 137.048 416.579 137.048H459.068C459.24 137.048 459.381 136.907 459.381 136.734V133.762C459.381 133.589 459.24 133.449 459.068 133.449Z" fill="white"/>
<path d="M406.293 153.5H375.424C374.735 153.5 374.177 154.059 374.177 154.749V174.873C374.177 175.563 374.735 176.122 375.424 176.122H406.293C406.981 176.122 407.54 175.563 407.54 174.873V154.749C407.54 154.059 406.981 153.5 406.293 153.5Z" fill="white"/>
<path d="M459.068 153.5H416.579C416.406 153.5 416.266 153.64 416.266 153.814V156.785C416.266 156.959 416.406 157.099 416.579 157.099H459.068C459.24 157.099 459.381 156.959 459.381 156.785V153.814C459.381 153.64 459.24 153.5 459.068 153.5Z" fill="white"/>
<path d="M459.068 161.212H416.579C416.406 161.212 416.266 161.353 416.266 161.526V164.497C416.266 164.671 416.406 164.811 416.579 164.811H459.068C459.24 164.811 459.381 164.671 459.381 164.497V161.526C459.381 161.353 459.24 161.212 459.068 161.212Z" fill="white"/>
<path d="M459.042 168.924H416.604C416.417 168.924 416.266 169.076 416.266 169.263V172.184C416.266 172.371 416.417 172.523 416.604 172.523H459.042C459.229 172.523 459.381 172.371 459.381 172.184V169.263C459.381 169.076 459.229 168.924 459.042 168.924Z" fill="white"/>
<path d="M406.293 188.975H375.424C374.735 188.975 374.177 189.535 374.177 190.225V210.348C374.177 211.038 374.735 211.597 375.424 211.597H406.293C406.981 211.597 407.54 211.038 407.54 210.348V190.225C407.54 189.535 406.981 188.975 406.293 188.975Z" fill="white"/>
<path d="M459.042 188.975H416.604C416.417 188.975 416.266 189.127 416.266 189.315V192.235C416.266 192.422 416.417 192.574 416.604 192.574H459.042C459.229 192.574 459.381 192.422 459.381 192.235V189.315C459.381 189.127 459.229 188.975 459.042 188.975Z" fill="white"/>
<path d="M459.042 196.687H416.604C416.417 196.687 416.266 196.839 416.266 197.027V199.947C416.266 200.134 416.417 200.286 416.604 200.286H459.042C459.229 200.286 459.381 200.134 459.381 199.947V197.027C459.381 196.839 459.229 196.687 459.042 196.687Z" fill="white"/>
<path d="M459.042 204.399H416.604C416.417 204.399 416.266 204.551 416.266 204.739V207.659C416.266 207.846 416.417 207.998 416.604 207.998H459.042C459.229 207.998 459.381 207.846 459.381 207.659V204.739C459.381 204.551 459.229 204.399 459.042 204.399Z" fill="white"/>
<path d="M406.293 224.451H375.424C374.735 224.451 374.177 225.01 374.177 225.7V245.823C374.177 246.513 374.735 247.073 375.424 247.073H406.293C406.981 247.073 407.54 246.513 407.54 245.823V225.7C407.54 225.01 406.981 224.451 406.293 224.451Z" fill="white"/>
<path d="M459.042 224.451H416.604C416.417 224.451 416.266 224.603 416.266 224.79V227.71C416.266 227.898 416.417 228.05 416.604 228.05H459.042C459.229 228.05 459.381 227.898 459.381 227.71V224.79C459.381 224.603 459.229 224.451 459.042 224.451Z" fill="white"/>
<path d="M459.042 232.163H416.604C416.417 232.163 416.266 232.315 416.266 232.502V235.422C416.266 235.61 416.417 235.762 416.604 235.762H459.042C459.229 235.762 459.381 235.61 459.381 235.422V232.502C459.381 232.315 459.229 232.163 459.042 232.163Z" fill="white"/>
<path d="M459.042 239.875H416.604C416.417 239.875 416.266 240.027 416.266 240.214V243.134C416.266 243.322 416.417 243.474 416.604 243.474H459.042C459.229 243.474 459.381 243.322 459.381 243.134V240.214C459.381 240.027 459.229 239.875 459.042 239.875Z" fill="white"/>
<path d="M406.293 259.926H375.424C374.735 259.926 374.177 260.485 374.177 261.175V281.299C374.177 281.989 374.735 282.548 375.424 282.548H406.293C406.981 282.548 407.54 281.989 407.54 281.299V261.175C407.54 260.485 406.981 259.926 406.293 259.926Z" fill="white"/>
<path d="M459.042 259.926H416.604C416.417 259.926 416.266 260.078 416.266 260.265V263.186C416.266 263.373 416.417 263.525 416.604 263.525H459.042C459.229 263.525 459.381 263.373 459.381 263.186V260.265C459.381 260.078 459.229 259.926 459.042 259.926Z" fill="white"/>
<path d="M459.042 267.638H416.604C416.417 267.638 416.266 267.79 416.266 267.977V270.898C416.266 271.085 416.417 271.237 416.604 271.237H459.042C459.229 271.237 459.381 271.085 459.381 270.898V267.977C459.381 267.79 459.229 267.638 459.042 267.638Z" fill="white"/>
<path d="M459.042 275.35H416.604C416.417 275.35 416.266 275.502 416.266 275.689V278.61C416.266 278.797 416.417 278.949 416.604 278.949H459.042C459.229 278.949 459.381 278.797 459.381 278.61V275.689C459.381 275.502 459.229 275.35 459.042 275.35Z" fill="white"/>
<path opacity="0.1" d="M209.288 167.181H156.508V169.921H209.288V167.181Z" fill="#11ABEB"/>
<path opacity="0.1" d="M166.28 152.693H161.199V167.181H166.28V152.693Z" fill="#11ABEB"/>
<path opacity="0.1" d="M173.708 152.693H168.626V167.181H173.708V152.693Z" fill="#11ABEB"/>
<path opacity="0.1" d="M181.134 152.693H176.053V167.181H181.134V152.693Z" fill="#11ABEB"/>
<path opacity="0.1" d="M188.562 152.693H183.48V167.181H188.562V152.693Z" fill="#11ABEB"/>
<path opacity="0.1" d="M195.989 152.693H190.907V167.181H195.989V152.693Z" fill="#11ABEB"/>
<path opacity="0.1" d="M203.421 152.693H198.34V167.181H203.421V152.693Z" fill="#11ABEB"/>
<path opacity="0.1" d="M166.28 155.433H161.199V157.001H166.28V155.433Z" fill="#11ABEB"/>
<path opacity="0.1" d="M173.708 155.433H168.626V157.001H173.708V155.433Z" fill="#11ABEB"/>
<path opacity="0.1" d="M181.134 155.433H176.053V157.001H181.134V155.433Z" fill="#11ABEB"/>
<path opacity="0.1" d="M188.562 155.433H183.48V157.001H188.562V155.433Z" fill="#11ABEB"/>
<path opacity="0.1" d="M195.989 155.433H190.907V157.001H195.989V155.433Z" fill="#11ABEB"/>
<path opacity="0.1" d="M203.421 155.433H198.34V157.001H203.421V155.433Z" fill="#11ABEB"/>
<path opacity="0.1" d="M166.28 162.482H161.199V164.05H166.28V162.482Z" fill="#11ABEB"/>
<path opacity="0.1" d="M173.708 162.482H168.626V164.05H173.708V162.482Z" fill="#11ABEB"/>
<path opacity="0.1" d="M181.134 162.482H176.053V164.05H181.134V162.482Z" fill="#11ABEB"/>
<path opacity="0.1" d="M188.562 162.482H183.48V164.05H188.562V162.482Z" fill="#11ABEB"/>
<path opacity="0.1" d="M195.989 162.482H190.907V164.05H195.989V162.482Z" fill="#11ABEB"/>
<path opacity="0.1" d="M203.421 162.482H198.34V164.05H203.421V162.482Z" fill="#11ABEB"/>
<path opacity="0.1" d="M325.005 174.23H272.225V176.97H325.005V174.23Z" fill="#11ABEB"/>
<path opacity="0.1" d="M281.998 159.742H276.917V174.23H281.998V159.742Z" fill="#11ABEB"/>
<path opacity="0.1" d="M289.425 159.742H284.344V174.23H289.425V159.742Z" fill="#11ABEB"/>
<path opacity="0.1" d="M296.852 159.742H291.771V174.23H296.852V159.742Z" fill="#11ABEB"/>
<path opacity="0.1" d="M304.285 159.742H299.203V174.23H304.285V159.742Z" fill="#11ABEB"/>
<path opacity="0.1" d="M311.711 159.742H306.63V174.23H311.711V159.742Z" fill="#11ABEB"/>
<path opacity="0.1" d="M319.139 159.742H314.057V174.23H319.139V159.742Z" fill="#11ABEB"/>
<path opacity="0.1" d="M281.998 162.482H276.917V164.05H281.998V162.482Z" fill="#11ABEB"/>
<path opacity="0.1" d="M289.425 162.482H284.344V164.05H289.425V162.482Z" fill="#11ABEB"/>
<path opacity="0.1" d="M296.852 162.482H291.771V164.05H296.852V162.482Z" fill="#11ABEB"/>
<path opacity="0.1" d="M304.285 162.482H299.203V164.05H304.285V162.482Z" fill="#11ABEB"/>
<path opacity="0.1" d="M311.711 162.482H306.63V164.05H311.711V162.482Z" fill="#11ABEB"/>
<path opacity="0.1" d="M319.139 162.482H314.057V164.05H319.139V162.482Z" fill="#11ABEB"/>
<path opacity="0.1" d="M281.998 169.531H276.917V171.099H281.998V169.531Z" fill="#11ABEB"/>
<path opacity="0.1" d="M289.425 169.531H284.344V171.099H289.425V169.531Z" fill="#11ABEB"/>
<path opacity="0.1" d="M296.852 169.531H291.771V171.099H296.852V169.531Z" fill="#11ABEB"/>
<path opacity="0.1" d="M304.285 169.531H299.203V171.099H304.285V169.531Z" fill="#11ABEB"/>
<path opacity="0.1" d="M311.711 169.531H306.63V171.099H311.711V169.531Z" fill="#11ABEB"/>
<path opacity="0.1" d="M319.139 169.531H314.057V171.099H319.139V169.531Z" fill="#11ABEB"/>
<path opacity="0.1" d="M325.005 194.199H272.225V196.939H325.005V194.199Z" fill="#11ABEB"/>
<path opacity="0.1" d="M281.998 179.711H276.917V194.199H281.998V179.711Z" fill="#11ABEB"/>
<path opacity="0.1" d="M289.425 179.711H284.344V194.199H289.425V179.711Z" fill="#11ABEB"/>
<path opacity="0.1" d="M296.852 179.711H291.771V194.199H296.852V179.711Z" fill="#11ABEB"/>
<path opacity="0.1" d="M304.285 179.711H299.203V194.199H304.285V179.711Z" fill="#11ABEB"/>
<path opacity="0.1" d="M311.711 179.711H306.63V194.199H311.711V179.711Z" fill="#11ABEB"/>
<path opacity="0.1" d="M319.139 179.711H314.057V194.199H319.139V179.711Z" fill="#11ABEB"/>
<path opacity="0.1" d="M281.998 182.451H276.917V184.019H281.998V182.451Z" fill="#11ABEB"/>
<path opacity="0.1" d="M289.425 182.451H284.344V184.019H289.425V182.451Z" fill="#11ABEB"/>
<path opacity="0.1" d="M296.852 182.451H291.771V184.019H296.852V182.451Z" fill="#11ABEB"/>
<path opacity="0.1" d="M304.285 182.451H299.203V184.019H304.285V182.451Z" fill="#11ABEB"/>
<path opacity="0.1" d="M311.711 182.451H306.63V184.019H311.711V182.451Z" fill="#11ABEB"/>
<path opacity="0.1" d="M319.139 182.451H314.057V184.019H319.139V182.451Z" fill="#11ABEB"/>
<path opacity="0.1" d="M281.998 189.5H276.917V191.068H281.998V189.5Z" fill="#11ABEB"/>
<path opacity="0.1" d="M289.425 189.5H284.344V191.068H289.425V189.5Z" fill="#11ABEB"/>
<path opacity="0.1" d="M296.852 189.5H291.771V191.068H296.852V189.5Z" fill="#11ABEB"/>
<path opacity="0.1" d="M304.285 189.5H299.203V191.068H304.285V189.5Z" fill="#11ABEB"/>
<path opacity="0.1" d="M311.711 189.5H306.63V191.068H311.711V189.5Z" fill="#11ABEB"/>
<path opacity="0.1" d="M319.139 189.5H314.057V191.068H319.139V189.5Z" fill="#11ABEB"/>
<path opacity="0.1" d="M188.885 198.168C188.491 197.663 188.131 197.132 187.807 196.579L195.409 195.33L187.196 195.392C186.409 193.674 185.979 191.813 185.933 189.923C185.887 188.033 186.226 186.154 186.929 184.4L197.939 190.117L187.771 182.631C188.717 180.968 189.996 179.52 191.527 178.376C193.059 177.232 194.81 176.418 196.67 175.984C198.531 175.551 200.461 175.507 202.339 175.856C204.218 176.205 206.004 176.939 207.585 178.013C209.167 179.086 210.509 180.475 211.529 182.093C212.549 183.711 213.224 185.523 213.512 187.415C213.799 189.306 213.693 191.237 213.201 193.086C212.708 194.935 211.839 196.661 210.648 198.158C211.267 198.94 211.797 199.788 212.229 200.687L202.364 205.829L212.881 202.297C213.616 204.481 213.797 206.814 213.408 209.086C213.018 211.358 212.069 213.497 210.648 215.309C212.259 217.356 213.263 219.816 213.544 222.407C213.825 224.999 213.372 227.617 212.236 229.962C211.101 232.308 209.329 234.286 207.124 235.67C204.918 237.053 202.369 237.787 199.766 237.787C197.164 237.787 194.614 237.053 192.409 235.67C190.204 234.286 188.432 232.308 187.297 229.962C186.161 227.617 185.708 224.999 185.989 222.407C186.27 219.816 187.273 217.356 188.885 215.309C186.966 212.863 185.922 209.842 185.922 206.731C185.922 203.62 186.966 200.599 188.885 198.153V198.168Z" fill="#11ABEB"/>
<path opacity="0.1" d="M213.614 206.744C213.615 209.852 212.57 212.869 210.648 215.309C212.259 217.356 213.263 219.816 213.544 222.407C213.825 224.999 213.371 227.617 212.236 229.963C211.101 232.308 209.329 234.286 207.124 235.67C204.918 237.054 202.369 237.787 199.766 237.787C197.164 237.787 194.614 237.054 192.409 235.67C190.204 234.286 188.432 232.308 187.297 229.963C186.161 227.617 185.708 224.999 185.989 222.407C186.27 219.816 187.273 217.356 188.885 215.309C187.022 212.96 213.614 205.186 213.614 206.744Z" fill="#11ABEB"/>
<path opacity="0.2" d="M201.984 241.468C202.008 241.505 202.03 241.543 202.051 241.581H197.349C197.375 241.546 197.39 241.504 197.416 241.468C197.011 240.763 196.802 239.963 196.81 239.15C196.808 238.592 196.903 238.039 197.092 237.515C197.354 237.556 197.677 237.602 198.052 237.643C199.143 237.752 200.241 237.752 201.332 237.643C201.647 237.612 201.97 237.571 202.302 237.52C202.3 237.528 202.3 237.537 202.302 237.545C202.489 238.061 202.583 238.606 202.579 239.155C202.59 239.965 202.384 240.764 201.984 241.468Z" fill="#3F3D56"/>
<path opacity="0.1" d="M185.087 241.582H158.91C158.853 241.432 158.802 241.273 158.756 241.119C157.834 238.148 157.94 234.952 159.059 232.049C156.503 230.28 154.615 227.701 153.699 224.728C152.782 221.754 152.889 218.559 154.003 215.654C153.477 215.291 152.978 214.891 152.509 214.456L159.397 211.016L151.565 213.505C150.305 212.097 149.346 210.447 148.746 208.655C148.146 206.863 147.917 204.967 148.075 203.083L160.296 205.294L148.377 201.145C148.789 199.274 149.582 197.509 150.707 195.96C151.833 194.411 153.266 193.112 154.917 192.146C156.568 191.179 158.401 190.565 160.3 190.342C162.199 190.119 164.124 190.292 165.954 190.851C167.783 191.41 169.477 192.342 170.929 193.588C172.381 194.835 173.56 196.369 174.392 198.094C175.223 199.819 175.689 201.698 175.761 203.612C175.832 205.526 175.507 207.434 174.806 209.217C175.633 209.793 176.395 210.457 177.08 211.196L169.165 219.016L178.173 212.528C179.523 214.399 180.386 216.578 180.683 218.867C180.981 221.156 180.704 223.483 179.877 225.638C182.363 227.363 184.218 229.854 185.158 232.732C186.099 235.611 186.074 238.719 185.087 241.582Z" fill="#11ABEB"/>
<path opacity="0.1" d="M185.087 241.582H158.91C158.853 241.433 158.802 241.273 158.756 241.119C157.834 238.148 157.94 234.952 159.059 232.05C156.595 230.343 179.708 215.047 180.165 216.538C181.087 219.511 180.98 222.708 179.862 225.613C182.356 227.336 184.217 229.831 185.161 232.715C186.104 235.599 186.078 238.714 185.087 241.582Z" fill="#11ABEB"/>
<path opacity="0.1" d="M303.525 222.795C301.935 225.468 299.492 227.526 296.59 228.636C296.714 229.625 296.733 230.625 296.647 231.618L285.555 230.949L296.39 233.304C296.071 234.784 295.513 236.201 294.737 237.5C293.793 239.09 292.536 240.472 291.042 241.561H275.941V241.957H260.543C260.574 241.823 260.605 241.695 260.64 241.561C261.202 239.434 262.261 237.471 263.729 235.834C265.197 234.198 267.032 232.934 269.084 232.147C268.69 229.061 269.343 225.932 270.937 223.261C272.531 220.591 274.975 218.535 277.876 217.423C277.795 216.787 277.757 216.146 277.763 215.505L284.924 218.338L277.84 214.168C278.049 212.289 278.639 210.472 279.574 208.83C280.508 207.187 281.768 205.753 283.276 204.615L289.8 215.196L284.908 203.546C287.573 202.069 290.649 201.513 293.66 201.962C296.672 202.412 299.453 203.843 301.571 206.033C303.69 208.224 305.03 211.053 305.383 214.083C305.736 217.113 305.083 220.175 303.525 222.795Z" fill="#11ABEB"/>
<path opacity="0.1" d="M294.737 237.52C293.793 239.111 292.536 240.493 291.042 241.582H275.941V241.978H260.543C260.574 241.844 260.605 241.715 260.64 241.582C261.202 239.455 262.261 237.492 263.729 235.855C265.197 234.218 267.032 232.954 269.084 232.168C268.956 231.14 271.938 231.294 275.916 231.962C283.712 233.273 295.266 236.636 294.737 237.52Z" fill="#11ABEB"/>
<path d="M229.285 200.497C229.285 200.497 231.184 210.78 226.944 214.137C222.705 217.494 230.537 237.618 243.461 235.268C256.386 232.918 261.652 216.039 261.652 216.039C261.652 216.039 248.707 213.356 253.506 199.716L229.285 200.497Z" fill="#EE8E9E"/>
<path opacity="0.1" d="M229.285 200.497C229.285 200.497 231.184 210.78 226.944 214.137C222.705 217.494 230.537 237.618 243.461 235.268C256.386 232.918 261.652 216.039 261.652 216.039C261.652 216.039 248.707 213.356 253.506 199.716L229.285 200.497Z" fill="black"/>
<path d="M240.726 208.044C252.561 208.044 262.155 198.434 262.155 186.579C262.155 174.725 252.561 165.114 240.726 165.114C228.891 165.114 219.297 174.725 219.297 186.579C219.297 198.434 228.891 208.044 240.726 208.044Z" fill="#EE8E9E"/>
<path d="M275.941 227.386V241.977H205.181V228.05C205.181 226.283 205.701 224.556 206.675 223.084C207.649 221.612 209.034 220.46 210.658 219.772L212.685 218.908C217.818 216.718 224.054 213.998 226.092 212.867C226.315 212.756 226.525 212.619 226.718 212.461C227.832 211.345 227.611 212.795 227.611 212.795C227.611 212.795 227.581 213.073 227.56 213.551C227.437 216.836 227.909 229.746 243.015 228.672C257.751 227.643 258.413 217.659 258.264 214.723C258.256 214.451 258.233 214.18 258.197 213.911C259.217 214.154 260.214 214.48 261.179 214.888C264.259 216.029 268.807 217.859 270.023 218.723C270.403 218.991 270.865 219.268 271.368 219.551C271.939 219.87 272.472 220.251 272.959 220.687C273.898 221.532 274.648 222.564 275.162 223.719C275.676 224.873 275.941 226.123 275.941 227.386Z" fill="#11ABEB"/>
<path opacity="0.1" d="M261.18 214.888C259.933 220.677 256.016 231.52 241.901 231.803C226.862 232.101 225.99 217.119 226.087 212.867C226.314 212.758 226.526 212.622 226.719 212.461C227.838 211.345 227.612 212.795 227.612 212.795C227.612 212.795 225.718 229.9 243.01 228.672C260.302 227.443 258.177 213.916 258.177 213.916C258.177 213.834 259.465 214.281 261.18 214.888Z" fill="black"/>
<path d="M215.36 187.654C216.071 187.476 216.82 187.515 217.509 187.767C218.197 188.019 218.795 188.472 219.225 189.068C220.005 190.163 220.123 191.484 220.22 192.749C221.149 192.944 221.673 191.89 221.76 191.093C222.104 187.849 222.13 184.543 223.218 181.407C224.306 178.271 226.683 175.238 230.332 174.04C231.579 173.607 232.911 173.48 234.217 173.669C234.992 173.798 235.721 174.07 236.491 174.184C239.16 174.626 242.06 173.361 244.56 174.24C246.131 174.795 247.126 176.076 247.86 177.356C248.18 178.046 248.613 178.677 249.143 179.222C250.206 180.178 251.869 180.425 253.393 180.723C254.918 181.022 256.581 181.541 257.233 182.718C257.818 183.782 257.387 185.011 257.192 186.163C256.89 187.987 257.195 189.86 258.059 191.495C258.341 192.009 258.916 192.631 259.599 192.461C259.905 192.358 260.163 192.148 260.328 191.87C262.078 189.412 262.032 186.214 264.229 183.998C264.963 183.258 265.912 182.682 266.626 181.942C267.166 181.393 267.562 180.719 267.778 179.98C267.995 179.241 268.026 178.459 267.868 177.705C267.473 176.009 266.117 174.621 265.024 173.13C263.604 171.241 262.57 169.09 261.98 166.801C261.878 166.534 261.878 166.239 261.98 165.973C262.188 165.703 262.455 165.485 262.761 165.335C263.356 164.936 263.785 164.333 263.968 163.639C264.151 162.946 264.076 162.209 263.756 161.567C263.135 160.297 261.77 159.33 260.23 158.754C258.668 158.24 257.056 157.896 255.421 157.726C254.343 157.88 253.08 157.269 252.747 156.405C252.598 156.019 252.598 155.603 252.449 155.217C252.247 154.83 251.955 154.497 251.598 154.246C251.24 153.996 250.828 153.835 250.396 153.778C249.478 153.629 248.538 153.696 247.65 153.973C246.623 154.261 245.458 154.693 244.57 154.189C244.103 153.927 243.846 153.449 243.343 153.233C242.317 152.801 241.26 153.675 240.526 154.395C239.818 155.15 238.95 155.735 237.985 156.107C237.475 156.301 236.93 156.383 236.386 156.346C235.842 156.31 235.312 156.156 234.833 155.896C234.13 155.449 233.776 154.729 233.217 154.158C232.16 153.214 230.808 152.669 229.393 152.616C227.938 152.538 226.48 152.698 225.076 153.089C222.397 153.743 219.838 154.819 217.495 156.276C216.316 156.925 215.317 157.856 214.585 158.986C214.152 159.852 213.928 160.809 213.933 161.778C213.82 164.816 214.826 168.014 217.449 170.142C215.847 170.811 215.308 172.451 214.934 173.906C214.333 176.23 213.733 178.59 213.958 180.955C214.071 182.178 214.405 183.402 214.225 184.621C214.081 185.194 214.002 185.782 213.989 186.374C214.065 186.699 214.235 186.995 214.479 187.223C214.724 187.451 215.03 187.601 215.36 187.654Z" fill="#454B69"/>
<g opacity="0.1">
<path opacity="0.1" d="M267.534 176.749C267.304 177.253 266.991 177.715 266.61 178.117C265.897 178.868 264.947 179.448 264.213 180.173C262.016 182.374 262.062 185.592 260.312 188.05C260.149 188.328 259.89 188.536 259.583 188.636C258.916 188.811 258.341 188.204 258.044 187.669C257.704 187.018 257.447 186.328 257.279 185.613C257.243 185.793 257.207 185.973 257.176 186.127C256.874 187.951 257.179 189.825 258.044 191.459C258.326 191.973 258.901 192.595 259.583 192.425C259.889 192.322 260.148 192.112 260.312 191.834C262.062 189.376 262.016 186.178 264.213 183.963C264.947 183.222 265.897 182.646 266.61 181.906C267.15 181.357 267.546 180.683 267.763 179.944C267.98 179.205 268.01 178.424 267.852 177.67C267.773 177.354 267.667 177.046 267.534 176.749Z" fill="black"/>
<path opacity="0.1" d="M262.75 161.531C262.444 161.679 262.176 161.897 261.97 162.168C261.868 162.433 261.868 162.726 261.97 162.991C262.173 163.79 262.432 164.573 262.745 165.335C263.34 164.936 263.769 164.333 263.953 163.639C264.136 162.946 264.061 162.209 263.741 161.567C263.641 161.355 263.521 161.154 263.382 160.965C263.199 161.183 262.987 161.374 262.75 161.531Z" fill="black"/>
<path opacity="0.1" d="M217.479 166.297C215.66 164.796 214.462 162.673 214.117 160.338C214.025 160.799 213.973 161.267 213.963 161.737C213.845 163.982 214.436 166.207 215.651 168.096C216.019 167.292 216.669 166.651 217.479 166.297Z" fill="black"/>
<path opacity="0.1" d="M257.192 182.374C257.387 181.217 257.818 179.989 257.233 178.929C256.581 177.747 254.918 177.233 253.393 176.935C251.869 176.636 250.206 176.384 249.143 175.433C248.613 174.888 248.18 174.257 247.86 173.567C247.137 172.287 246.131 170.996 244.56 170.451C242.06 169.572 239.16 170.832 236.491 170.395C235.721 170.266 234.993 169.999 234.217 169.881C232.911 169.689 231.579 169.816 230.332 170.251C226.683 171.454 224.306 174.487 223.218 177.618C222.13 180.749 222.104 184.055 221.76 187.305C221.673 188.096 221.149 189.156 220.22 188.96C220.123 187.69 220.005 186.389 219.225 185.274C218.795 184.679 218.197 184.227 217.508 183.976C216.819 183.725 216.071 183.686 215.36 183.865C214.928 183.769 214.545 183.523 214.277 183.171C214.333 183.642 214.333 184.119 214.277 184.59C214.133 185.164 214.054 185.752 214.041 186.343C214.107 186.672 214.27 186.974 214.508 187.209C214.747 187.445 215.051 187.603 215.38 187.665C216.092 187.486 216.84 187.526 217.529 187.778C218.218 188.03 218.816 188.483 219.245 189.078C220.025 190.174 220.143 191.495 220.241 192.76C221.17 192.955 221.694 191.901 221.781 191.104C222.125 187.86 222.15 184.554 223.239 181.418C224.327 178.282 226.703 175.248 230.353 174.05C231.6 173.617 232.932 173.491 234.238 173.68C235.013 173.809 235.742 174.081 236.512 174.194C239.181 174.636 242.081 173.372 244.58 174.251C246.151 174.806 247.147 176.086 247.881 177.366C248.2 178.057 248.634 178.688 249.164 179.233C250.226 180.189 251.889 180.436 253.414 180.734C254.938 181.032 256.494 181.516 257.176 182.605C257.151 182.528 257.176 182.451 257.192 182.374Z" fill="black"/>
<path opacity="0.1" d="M214.256 180.775C214.341 179.817 214.284 178.852 214.087 177.911C213.936 178.905 213.904 179.912 213.989 180.914C213.989 181.171 214.046 181.428 214.082 181.68C214.138 181.376 214.215 181.078 214.256 180.775Z" fill="black"/>
</g>
<path d="M189.137 262.723V253.443C189.137 253.373 189.164 253.306 189.213 253.257C189.262 253.208 189.329 253.18 189.398 253.18H190.451C190.52 253.18 190.587 253.208 190.636 253.257C190.685 253.306 190.712 253.373 190.712 253.443V257.304L194.983 253.34C195.083 253.256 195.205 253.202 195.335 253.184C195.464 253.166 195.596 253.185 195.715 253.239C195.835 253.293 195.936 253.379 196.009 253.487C196.082 253.596 196.123 253.723 196.127 253.854V262.26C196.123 262.391 196.082 262.518 196.009 262.627C195.936 262.735 195.835 262.821 195.715 262.875C195.596 262.929 195.464 262.948 195.335 262.93C195.205 262.912 195.083 262.858 194.983 262.774L190.712 258.836V262.677C190.712 262.746 190.685 262.813 190.636 262.862C190.587 262.911 190.52 262.939 190.451 262.939H189.398C189.336 262.94 189.276 262.918 189.228 262.879C189.18 262.839 189.148 262.784 189.137 262.723Z" fill="#444053"/>
<path d="M292.32 253.443V262.723C292.32 262.758 292.313 262.792 292.3 262.824C292.286 262.856 292.266 262.886 292.242 262.91C292.217 262.934 292.187 262.954 292.155 262.967C292.122 262.979 292.088 262.986 292.053 262.985H291.027C290.957 262.985 290.891 262.957 290.841 262.908C290.792 262.859 290.765 262.792 290.765 262.723V258.862L286.494 262.82C286.393 262.904 286.271 262.957 286.142 262.975C286.012 262.992 285.88 262.973 285.761 262.92C285.641 262.867 285.539 262.781 285.465 262.672C285.392 262.564 285.35 262.437 285.345 262.306V253.869C285.35 253.739 285.392 253.612 285.465 253.503C285.539 253.395 285.641 253.309 285.761 253.256C285.88 253.202 286.012 253.183 286.142 253.201C286.271 253.219 286.393 253.272 286.494 253.355L290.765 257.294V253.458C290.765 253.389 290.792 253.322 290.841 253.273C290.891 253.224 290.957 253.196 291.027 253.196H292.053C292.121 253.195 292.186 253.219 292.236 253.265C292.286 253.311 292.316 253.375 292.32 253.443Z" fill="#444053"/>
<path d="M238.986 263.124H236.897C236.625 263.124 236.363 263.016 236.171 262.823C235.978 262.63 235.87 262.368 235.87 262.096V254.415C235.87 254.142 235.978 253.88 236.171 253.687C236.363 253.495 236.625 253.386 236.897 253.386H238.986C239.258 253.386 239.519 253.495 239.712 253.687C239.904 253.88 240.012 254.142 240.012 254.415V262.096C240.012 262.368 239.904 262.63 239.712 262.823C239.519 263.016 239.258 263.124 238.986 263.124ZM245.607 262.096V254.415C245.607 254.142 245.499 253.88 245.306 253.687C245.114 253.495 244.853 253.386 244.58 253.386H242.471C242.199 253.386 241.938 253.495 241.745 253.687C241.552 253.88 241.444 254.142 241.444 254.415V262.096C241.444 262.368 241.552 262.63 241.745 262.823C241.938 263.016 242.199 263.124 242.471 263.124H244.56C244.696 263.127 244.832 263.102 244.959 263.052C245.086 263.001 245.202 262.926 245.299 262.83C245.397 262.734 245.474 262.62 245.527 262.494C245.58 262.368 245.607 262.232 245.607 262.096Z" fill="#444053"/>
<path opacity="0.6" d="M302.319 240.934H179.133V242.307H302.319V240.934Z" fill="#444053"/>
<path d="M217.172 244.872C218.966 244.872 220.421 243.415 220.421 241.618C220.421 239.82 218.966 238.363 217.172 238.363C215.377 238.363 213.922 239.82 213.922 241.618C213.922 243.415 215.377 244.872 217.172 244.872Z" fill="#444053"/>
<path d="M217.172 240.934H179.133V242.307H217.172V240.934Z" fill="#444053"/>
<path d="M491.245 395.873C508.103 395.873 521.769 393.24 521.769 389.992C521.769 386.743 508.103 384.11 491.245 384.11C474.386 384.11 460.72 386.743 460.72 389.992C460.72 393.24 474.386 395.873 491.245 395.873Z" fill="#11ABEB"/>
<path d="M490.737 392.151C492.698 392.151 494.289 390.066 494.289 387.493C494.289 384.92 492.698 382.835 490.737 382.835C488.775 382.835 487.185 384.92 487.185 387.493C487.185 390.066 488.775 392.151 490.737 392.151Z" fill="#3F3D56"/>
<path d="M490.737 386.455C492.698 386.455 494.289 384.369 494.289 381.796C494.289 379.224 492.698 377.138 490.737 377.138C488.775 377.138 487.185 379.224 487.185 381.796C487.185 384.369 488.775 386.455 490.737 386.455Z" fill="#3F3D56"/>
<path d="M490.737 380.763C492.698 380.763 494.289 378.678 494.289 376.105C494.289 373.533 492.698 371.447 490.737 371.447C488.775 371.447 487.185 373.533 487.185 376.105C487.185 378.678 488.775 380.763 490.737 380.763Z" fill="#3F3D56"/>
<path d="M490.737 375.066C492.698 375.066 494.289 372.981 494.289 370.408C494.289 367.836 492.698 365.75 490.737 365.75C488.775 365.75 487.185 367.836 487.185 370.408C487.185 372.981 488.775 375.066 490.737 375.066Z" fill="#3F3D56"/>
<path d="M490.737 369.37C492.698 369.37 494.289 367.284 494.289 364.712C494.289 362.139 492.698 360.054 490.737 360.054C488.775 360.054 487.185 362.139 487.185 364.712C487.185 367.284 488.775 369.37 490.737 369.37Z" fill="#3F3D56"/>
<path d="M490.737 363.673C492.698 363.673 494.289 361.588 494.289 359.015C494.289 356.443 492.698 354.357 490.737 354.357C488.775 354.357 487.185 356.443 487.185 359.015C487.185 361.588 488.775 363.673 490.737 363.673Z" fill="#3F3D56"/>
<path d="M490.737 357.977C492.698 357.977 494.289 355.891 494.289 353.319C494.289 350.746 492.698 348.661 490.737 348.661C488.775 348.661 487.185 350.746 487.185 353.319C487.185 355.891 488.775 357.977 490.737 357.977Z" fill="#3F3D56"/>
<path d="M504.035 314.347C504.52 313.726 504.962 313.074 505.36 312.393L496.018 310.851L506.119 310.928C507.087 308.816 507.614 306.529 507.67 304.206C507.725 301.883 507.308 299.573 506.443 297.417L492.903 304.46L505.396 295.262C504.225 293.235 502.651 291.472 500.77 290.081C498.889 288.69 496.742 287.702 494.464 287.179C492.185 286.655 489.823 286.607 487.525 287.038C485.227 287.469 483.043 288.369 481.107 289.683C479.172 290.997 477.528 292.695 476.276 294.674C475.025 296.652 474.194 298.867 473.835 301.18C473.476 303.494 473.596 305.858 474.188 308.123C474.781 310.388 475.833 312.507 477.278 314.347C476.526 315.305 475.875 316.338 475.338 317.432L487.462 323.74L474.538 319.396C473.63 322.083 473.406 324.953 473.884 327.749C474.363 330.544 475.529 333.176 477.278 335.406C475.305 337.921 474.077 340.942 473.737 344.122C473.396 347.303 473.955 350.516 475.351 353.393C476.747 356.27 478.922 358.696 481.63 360.393C484.337 362.091 487.466 362.991 490.66 362.991C493.853 362.991 496.982 362.091 499.69 360.393C502.397 358.696 504.572 356.27 505.968 353.393C507.364 350.516 507.923 347.303 507.583 344.122C507.242 340.942 506.014 337.921 504.041 335.406C506.398 332.401 507.68 328.689 507.68 324.866C507.68 321.044 506.398 317.332 504.041 314.327L504.035 314.347Z" fill="#11ABEB"/>
<path opacity="0.1" d="M473.639 324.887C473.632 328.711 474.914 332.424 477.279 335.427C475.305 337.942 474.078 340.962 473.737 344.143C473.396 347.324 473.955 350.536 475.351 353.413C476.747 356.291 478.923 358.717 481.63 360.414C484.337 362.111 487.466 363.011 490.66 363.011C493.853 363.011 496.982 362.111 499.69 360.414C502.397 358.717 504.572 356.291 505.968 353.413C507.364 350.536 507.923 347.324 507.583 344.143C507.242 340.962 506.014 337.942 504.041 335.427C506.32 332.532 473.639 322.974 473.639 324.887Z" fill="black"/>
<path opacity="0.1" d="M148.85 427.534C176.913 427.534 199.664 422.7 199.664 416.737C199.664 410.774 176.913 405.94 148.85 405.94C120.786 405.94 98.0354 410.774 98.0354 416.737C98.0354 422.7 120.786 427.534 148.85 427.534Z" fill="#11ABEB"/>
<path d="M165.865 415.483C164.838 415.107 163.74 415.169 162.667 415.051C160.439 414.793 158.366 413.785 156.785 412.192C155.768 411.163 154.969 409.939 154.434 408.593C154.773 408.717 155.111 408.845 155.461 408.984C154.434 406.583 155.512 403.889 156.456 401.462C158.058 397.349 159.572 393.214 160.999 389.056C164.592 378.521 167.671 367.565 167.605 356.357C167.605 352.306 166.86 348.475 166.717 344.429C166.609 341.427 167.071 338.429 167.05 335.422C167.05 335 167.05 334.583 167.019 334.162C167.938 333.357 168.659 332.351 169.128 331.223C169.597 330.094 169.801 328.873 169.724 327.653C169.672 327.017 169.581 326.385 169.452 325.761C169.271 324.676 169.031 323.602 168.734 322.542C168.395 321.427 167.933 320.357 167.538 319.267C166.773 317.154 166.255 314.954 165.603 312.805C165.844 312.83 166.08 312.894 166.301 312.995C166.136 312.802 166.023 312.57 165.972 312.321C165.589 310.953 165.382 309.542 165.356 308.121L165.793 307.926C165.989 306.538 165.918 305.126 165.582 303.766C165.829 301.561 166.214 299.34 166.45 297.144C166.537 296.322 166.501 295.288 165.747 295.088C165.593 293.91 165.531 292.717 165.469 291.53C165.254 287.386 165.04 283.244 164.828 279.103C164.612 274.944 164.397 270.79 164.314 266.625C164.258 263.982 164.227 261.247 163.601 258.718C163.709 257.506 163.586 256.284 163.237 255.119C162.282 252.091 159.315 249.69 156.307 249.859C155.41 248.574 154.301 247.45 153.028 246.538C153.628 245.191 154.347 243.803 154.937 242.713C159.751 241.145 163.273 236.389 163.273 230.733C163.28 228.663 162.796 226.621 161.861 224.775C161.949 224.548 162.025 224.316 162.087 224.08C162.345 222.97 162.264 221.808 161.856 220.744C161.711 220.335 161.54 219.937 161.343 219.551C161.209 219.294 161.065 219.037 160.917 218.79L160.655 218.394C160.496 218.152 160.331 217.921 160.142 217.695C159.777 217.205 159.386 216.734 158.971 216.286C158.46 215.732 157.896 215.229 157.288 214.785C156.462 214.17 155.519 213.734 154.516 213.505C153.936 213.39 153.346 213.337 152.756 213.345C152.401 213.345 152.042 213.345 151.688 213.376C150.969 213.417 150.256 213.469 149.542 213.464C149.306 213.464 149.065 213.464 148.829 213.428C147.573 213.26 146.331 213 145.113 212.651L144.497 212.523C144.287 212.482 144.081 212.446 143.871 212.42C143.308 212.344 142.74 212.31 142.172 212.317H141.602C141.033 212.344 140.466 212.403 139.903 212.492L139.339 212.579C137.913 212.803 136.523 213.216 135.207 213.808C135.037 213.885 134.863 213.973 134.693 214.065L134.591 214.122C134.452 214.194 134.314 214.271 134.18 214.353L134.103 214.399L133.667 214.677L133.631 214.703C129.556 217.448 127.148 222.651 126.538 227.813C125.855 233.607 127.051 239.448 128.247 245.15L129.325 250.291C129.371 250.522 129.422 250.749 129.468 250.98C127.953 252.226 126.787 253.845 126.086 255.679C125.059 258.25 125.034 261.031 125.116 263.818C125.116 264.383 125.147 264.949 125.203 265.515C125.075 266.584 124.962 267.659 124.89 268.738C124.567 273.725 125.172 278.738 125.013 283.736C124.89 287.586 124.31 291.448 124.592 295.273C124.839 298.666 125.747 301.956 126.645 305.232L127.939 309.9C127.981 310.141 128.093 310.365 128.262 310.543C128.475 310.685 128.734 310.739 128.986 310.692C128.144 312.606 127.441 314.579 126.881 316.594C126.495 317.828 126.24 319.1 126.122 320.388C125.952 322.743 126.496 325.082 127.041 327.37C127.862 330.798 128.68 334.239 129.494 337.694C130.069 340.11 130.642 342.525 131.213 344.938C132.343 349.699 133.477 354.491 133.687 359.39C133.805 361.851 133.632 364.317 133.174 366.737C131.693 373.986 131.478 381.436 132.538 388.758C133.394 394.935 134.784 401.026 136.69 406.963C137.106 406.742 137.527 406.537 137.958 406.346L137.778 406.681C137.186 407.709 136.639 408.763 136.136 409.843C135.797 410.544 135.503 411.267 135.258 412.007C134.601 414.064 134.498 416.254 134.406 418.418C134.359 418.834 134.396 419.256 134.514 419.657C134.796 420.434 135.607 420.83 136.362 421.046C138.579 421.678 140.884 421.452 143.188 421.154C143.199 421.205 143.214 421.254 143.234 421.303C143.517 422.079 144.322 422.475 145.082 422.691C148.254 423.596 151.601 422.742 154.87 422.434C158.14 422.125 161.353 422.351 164.499 421.596C164.968 421.495 165.419 421.322 165.834 421.082C166.643 420.515 167.236 419.69 167.517 418.742C167.616 418.497 167.681 418.239 167.712 417.976C167.841 416.85 166.881 415.858 165.865 415.483ZM155.009 367.869C154.832 369.073 154.486 370.247 153.982 371.354C151.513 376.614 149.743 382.174 148.716 387.894C148.042 391.673 147.653 395.497 147.551 399.334C147.5 402.161 147.607 405.123 146.432 407.663L146.858 407.596C146.725 407.843 146.596 408.11 146.473 408.305L146.411 408.418C145.701 407.206 145.225 405.87 145.01 404.48C145.01 404.434 144.779 404.398 144.425 404.377C142.974 396.256 142.471 387.993 142.926 379.755C142.933 378.756 143.071 377.762 143.337 376.799C143.599 375.971 144.04 375.216 144.364 374.414C144.876 373.066 145.221 371.66 145.39 370.228C145.949 366.569 146.166 362.864 146.037 359.164C145.914 355.673 146.719 352.203 147.407 348.727C147.736 347.077 148.039 345.421 148.203 343.766L148.234 343.432C151.287 348.478 153.422 354.028 154.537 359.822C155.157 362.457 155.316 365.179 155.009 367.869ZM133.041 293.566L133.205 293.71C133.701 294.147 134.158 294.627 134.57 295.144C134.775 295.37 134.923 295.641 135.001 295.936C135.155 296.687 134.534 297.324 134.026 297.874C133.805 298.113 133.598 298.363 133.405 298.625C133.296 296.939 133.179 295.252 133.056 293.566H133.041Z" fill="url(#paint1_linear)"/>
<path d="M125.937 261.34L125.372 265.705C125.182 267.186 124.992 268.661 124.89 270.147C124.546 275.093 125.182 280.059 125.018 285.016C124.885 288.831 124.279 292.64 124.572 296.45C124.833 299.812 125.788 303.082 126.743 306.321L128.098 310.949C128.144 311.19 128.262 311.413 128.437 311.586C128.698 311.741 129.008 311.791 129.304 311.725L135.32 311.18C134.935 309.411 134.509 307.581 134.293 305.766C134.129 304.347 134.031 302.918 133.929 301.489C133.61 297.036 133.246 292.584 132.902 288.121L132.26 280.306C131.988 276.913 131.706 273.504 130.854 270.209C129.999 266.88 128.306 263.826 125.937 261.34Z" fill="#11ABEB"/>
<path opacity="0.1" d="M125.937 261.34L125.372 265.705C125.182 267.186 124.992 268.661 124.89 270.147C124.546 275.093 125.182 280.059 125.018 285.016C124.885 288.831 124.279 292.64 124.572 296.45C124.833 299.812 125.788 303.082 126.743 306.321L128.098 310.949C128.144 311.19 128.262 311.413 128.437 311.586C128.698 311.741 129.008 311.791 129.304 311.725L135.32 311.18C134.935 309.411 134.509 307.581 134.293 305.766C134.129 304.347 134.031 302.918 133.929 301.489C133.61 297.036 133.246 292.584 132.902 288.121L132.26 280.306C131.988 276.913 131.706 273.504 130.854 270.209C129.999 266.88 128.306 263.826 125.937 261.34Z" fill="black"/>
<path d="M136.654 409.935C136.301 410.631 135.992 411.349 135.73 412.084C135.042 414.115 134.94 416.295 134.837 418.439C134.792 418.852 134.83 419.27 134.95 419.668C135.248 420.439 136.1 420.829 136.895 421.04C140.226 421.94 143.737 421.097 147.161 420.788C150.584 420.48 153.967 420.706 157.272 419.961C157.76 419.866 158.232 419.702 158.674 419.472C159.51 418.926 160.135 418.11 160.444 417.159C160.544 416.915 160.611 416.659 160.644 416.398C160.752 415.267 159.772 414.29 158.704 413.92C157.637 413.549 156.472 413.606 155.347 413.493C153.032 413.256 150.86 412.26 149.167 410.66C147.475 409.06 146.356 406.946 145.985 404.645C145.944 404.398 140.421 404.547 139.826 404.866C139.149 405.241 138.738 406.172 138.353 406.804C137.747 407.822 137.181 408.866 136.654 409.935Z" fill="#A26565"/>
<path opacity="0.1" d="M136.654 409.935C136.301 410.631 135.992 411.349 135.73 412.084C135.042 414.115 134.94 416.295 134.837 418.439C134.792 418.852 134.83 419.27 134.95 419.668C135.248 420.439 136.1 420.829 136.895 421.04C140.226 421.94 143.737 421.097 147.161 420.788C150.584 420.48 153.967 420.706 157.272 419.961C157.76 419.866 158.232 419.702 158.674 419.472C159.51 418.926 160.135 418.11 160.444 417.159C160.544 416.915 160.611 416.659 160.644 416.398C160.752 415.267 159.772 414.29 158.704 413.92C157.637 413.549 156.472 413.606 155.347 413.493C153.032 413.256 150.86 412.26 149.167 410.66C147.475 409.06 146.356 406.946 145.985 404.645C145.944 404.398 140.421 404.547 139.826 404.866C139.149 405.241 138.738 406.172 138.353 406.804C137.747 407.822 137.181 408.866 136.654 409.935Z" fill="black"/>
<path d="M145.816 411.57C145.461 412.263 145.152 412.98 144.892 413.714C144.199 415.771 144.096 417.925 143.999 420.069C143.951 420.482 143.99 420.9 144.112 421.297C144.404 422.069 145.256 422.459 146.052 422.675C149.383 423.57 152.899 422.727 156.318 422.418C159.736 422.11 163.129 422.336 166.429 421.591C166.919 421.491 167.392 421.318 167.83 421.076C168.668 420.532 169.294 419.715 169.601 418.763C169.701 418.519 169.768 418.263 169.801 418.002C169.909 416.876 168.929 415.894 167.861 415.524C166.794 415.154 165.628 415.215 164.504 415.097C162.19 414.859 160.019 413.864 158.327 412.265C156.634 410.667 155.515 408.554 155.142 406.254C155.101 406.007 149.578 406.151 148.983 406.47C148.3 406.845 147.89 407.776 147.505 408.408C146.919 409.452 146.345 410.501 145.816 411.57Z" fill="#A26565"/>
<path d="M169.699 356.953C169.771 368.064 166.547 378.922 162.764 389.344C161.266 393.478 159.676 397.575 157.996 401.637C157 404.043 155.876 406.716 156.944 409.092C153.864 407.92 150.733 407.231 147.494 407.771C148.726 405.251 148.608 402.321 148.665 399.544C148.769 395.739 149.174 391.949 149.876 388.208C150.963 382.514 152.827 376.997 155.414 371.812C155.937 370.718 156.299 369.555 156.487 368.357C156.908 365.714 156.579 363 156.03 360.383C154.849 354.602 152.603 349.093 149.409 344.136L149.378 344.465C149.186 346.119 148.909 347.761 148.547 349.385C147.823 352.825 146.976 356.27 147.104 359.73C147.238 363.399 147.011 367.072 146.427 370.696C146.239 372.119 145.868 373.512 145.323 374.84C144.969 375.637 144.507 376.383 144.23 377.21C143.953 378.163 143.808 379.149 143.799 380.141C143.388 388.506 143.799 396.999 145.503 405.2C142.644 404.974 139.785 405.801 137.229 407.087C135.23 401.217 133.77 395.176 132.866 389.041C131.752 381.784 131.979 374.385 133.533 367.21C134.018 364.818 134.199 362.373 134.072 359.935C133.852 355.077 132.661 350.326 131.475 345.606L129.668 338.409C128.813 334.981 127.958 331.569 127.102 328.172C126.532 325.905 125.957 323.586 126.137 321.252C126.262 319.971 126.531 318.709 126.938 317.488C128.219 313.337 130.136 309.411 132.62 305.848C142.511 306.404 152.519 305.478 162.39 304.717C162.868 304.623 163.365 304.707 163.786 304.954C164.122 305.296 164.323 305.749 164.35 306.229L168.061 327.308C168.662 330.238 169.014 333.214 169.114 336.203C169.114 339.185 168.652 342.157 168.765 345.133C168.919 349.144 169.678 352.938 169.699 356.953Z" fill="#454B69"/>
<path opacity="0.1" d="M149.388 344.465C149.197 346.119 148.919 347.761 148.557 349.385C146.406 345.658 144.086 342.023 142.105 338.203C141.592 337.221 141.109 336.224 140.622 335.226L139.159 332.244C138.887 331.684 138.615 331.123 138.368 330.553C137.967 329.733 137.659 328.87 137.45 327.982C138.168 327.848 139.944 329.792 140.478 330.301C141.567 331.381 142.595 332.52 143.558 333.715C144.727 335.042 145.801 336.451 146.771 337.93C148.013 339.941 148.899 342.152 149.388 344.465Z" fill="black"/>
<path d="M157.626 242.199C157.626 242.199 152.134 250.965 153.151 252.8C154.167 254.636 135.853 251.17 135.853 251.17C135.853 251.17 145.826 242.404 144.805 238.733C143.783 235.062 157.626 242.199 157.626 242.199Z" fill="#EFB7B9"/>
<path d="M152.745 244.852C159.603 244.852 165.162 239.283 165.162 232.415C165.162 225.546 159.603 219.978 152.745 219.978C145.888 219.978 140.329 225.546 140.329 232.415C140.329 239.283 145.888 244.852 152.745 244.852Z" fill="#EFB7B9"/>
<path d="M157.811 251.391C156.482 249.543 154.678 248.09 152.591 247.186C151.389 246.754 150.145 246.448 148.88 246.27L143.927 245.396C142.716 245.18 141.417 244.98 140.288 245.479C139.717 245.772 139.197 246.156 138.748 246.615C137.029 248.214 135.361 249.967 133.2 250.892C132.609 251.144 131.994 251.329 131.403 251.581C128.986 252.61 127.179 254.8 126.158 257.237C125.08 259.777 125.049 262.538 125.131 265.299C125.13 266.252 125.224 267.202 125.413 268.137C125.66 269.026 125.974 269.896 126.353 270.738C127.035 272.541 127.608 274.383 128.067 276.255C129.35 281.173 130.418 286.143 131.27 291.165C131.342 291.884 131.553 292.582 131.891 293.221C132.369 293.861 132.948 294.418 133.605 294.872C134.126 295.3 134.606 295.777 135.037 296.296C135.252 296.508 135.413 296.769 135.504 297.057C135.663 297.797 134.991 298.435 134.478 298.974C133.373 300.103 132.575 301.496 132.158 303.021C131.9 303.334 131.769 303.731 131.788 304.136C131.895 304.418 131.936 304.721 131.906 305.021C131.805 305.293 131.646 305.541 131.439 305.746C131.202 306.055 131.034 306.411 130.946 306.79C130.857 307.17 130.85 307.564 130.926 307.946C134.773 309.621 138.891 310.585 143.08 310.794C144.107 310.846 145.133 310.846 146.16 310.969C146.889 311.062 147.607 311.211 148.336 311.298C149.394 311.398 150.457 311.425 151.518 311.38C157.046 311.267 162.734 311.129 167.81 308.933C168.287 306.326 167.255 303.668 166.609 301.098C165.582 296.985 165.326 292.774 164.556 288.625C164.042 285.792 163.272 283 162.836 280.147C162.4 277.293 162.323 274.337 163.083 271.561C163.775 269.103 163.986 266.594 164.704 264.142C165.423 261.689 165.926 259.031 165.115 256.605C164.089 253.602 160.973 251.222 157.811 251.391Z" fill="#11ABEB"/>
<path d="M163.909 225.818C164.515 223.613 163.324 221.315 161.907 219.52C160.367 217.592 158.407 215.854 155.999 215.371C154.044 214.975 152.016 215.453 150.025 215.294C148.264 215.155 146.571 214.518 144.82 214.266C143.232 214.094 141.628 214.155 140.057 214.446C138.567 214.668 137.11 215.075 135.72 215.659C130.433 218.009 127.338 223.798 126.62 229.541C125.901 235.284 127.158 241.073 128.411 246.723L129.545 251.834C130.726 257.155 131.906 262.497 132.219 267.936C132.532 273.376 131.947 278.959 129.715 283.926C136.935 280.041 142.53 273.696 145.488 266.039C146.288 263.936 146.884 261.751 147.777 259.684C148.542 257.905 149.522 256.219 150.199 254.404C150.965 252.356 151.333 250.18 151.282 247.993C151.241 246.348 150.969 244.713 151.016 243.068C151.062 241.422 151.483 239.71 152.617 238.517C153.643 237.463 155.055 236.975 156.354 236.291C158.398 235.239 160.184 233.747 161.584 231.921C162.4 230.852 162.446 230.379 162.651 229.165C162.857 227.952 163.591 226.985 163.909 225.818Z" fill="#A26565"/>
<path d="M163.925 319.242C164.053 320.522 163.822 321.812 164.099 323.082C164.31 324.028 164.797 324.882 165.085 325.807C165.369 326.876 165.516 327.976 165.521 329.082C165.562 330.008 165.49 331.139 164.669 331.571C164.31 331.761 163.878 331.761 163.504 331.925C163.129 332.09 162.811 332.537 163.026 332.887C163.242 333.236 163.611 333.18 163.95 333.247C164.289 333.314 164.653 333.663 164.464 333.946C164.386 334.039 164.282 334.105 164.166 334.136C163.823 334.242 163.498 334.398 163.201 334.599C163.056 334.705 162.942 334.848 162.872 335.014C162.803 335.18 162.78 335.362 162.806 335.54C162.826 335.625 162.866 335.704 162.922 335.772C162.977 335.84 163.047 335.894 163.127 335.93C163.206 335.967 163.293 335.985 163.381 335.983C163.468 335.982 163.554 335.96 163.632 335.92C163.481 336.243 163.399 336.593 163.391 336.949C164.705 337.514 166.178 336.774 167.41 336.059C167.942 335.761 168.457 335.432 168.95 335.072C169.946 334.306 170.74 333.307 171.263 332.162C171.785 331.018 172.02 329.763 171.947 328.506C171.888 327.875 171.791 327.249 171.655 326.63C171.465 325.552 171.213 324.486 170.9 323.437C170.546 322.332 170.063 321.278 169.648 320.193C168.765 317.884 168.195 315.468 167.394 313.129C167.341 312.886 167.205 312.67 167.009 312.517C166.833 312.43 166.636 312.392 166.44 312.409C165.541 312.362 164.64 312.445 163.765 312.656C163.252 312.81 162.375 313.17 162.133 313.684C161.892 314.198 162.277 314.63 162.508 315.057C163.246 316.347 163.727 317.768 163.925 319.242Z" fill="#EFB7B9"/>
<path opacity="0.1" d="M163.088 256.769C163.351 257.039 163.573 257.348 163.745 257.684C165.51 260.898 165.531 264.738 165.613 268.404C165.705 272.517 165.931 276.63 166.157 280.769L166.829 293.108C166.896 294.285 166.958 295.463 167.127 296.63C167.918 296.83 167.948 297.859 167.861 298.686C167.291 303.715 165.88 308.892 167.348 313.73C167.404 313.978 167.523 314.208 167.692 314.398C166.946 314.164 166.149 314.154 165.397 314.368C164.663 314.522 163.955 314.794 163.216 314.964C162.282 315.175 161.225 315.267 160.588 315.992C159.867 313.819 159.292 311.6 158.869 309.35C158.52 307.293 158.422 305.175 157.591 303.273C157.257 302.507 156.805 301.797 156.395 301.062C154.244 297.216 153.187 292.872 152.155 288.584C151.692 286.551 151.581 284.454 151.826 282.383C151.976 281.439 152.062 280.486 152.083 279.53C152.021 278.521 151.889 277.518 151.688 276.527C151.252 273.62 151.457 270.653 152.288 267.833C153.058 265.216 153.736 262.461 155.368 260.26C157 258.06 160.362 256.805 163.088 256.769Z" fill="black"/>
<path d="M163.699 256.358C163.962 256.63 164.184 256.94 164.356 257.278C166.121 260.486 166.142 264.332 166.224 267.998C166.316 272.111 166.542 276.224 166.768 280.337L167.44 292.676C167.507 293.854 167.569 295.031 167.738 296.198C168.529 296.399 168.559 297.427 168.467 298.255C167.902 303.283 166.491 308.455 167.954 313.298C168.01 313.547 168.129 313.776 168.298 313.967C167.552 313.733 166.755 313.722 166.003 313.936C165.269 314.09 164.561 314.363 163.822 314.527C162.888 314.743 161.83 314.83 161.194 315.555C160.475 313.372 159.906 311.143 159.49 308.882C159.141 306.825 159.043 304.712 158.212 302.81C157.851 302.053 157.452 301.315 157.016 300.599C154.86 296.753 153.808 292.404 152.776 288.116C152.313 286.083 152.202 283.986 152.448 281.916C152.834 279.977 152.787 277.977 152.309 276.06C151.873 273.154 152.078 270.188 152.91 267.371C153.68 264.754 154.357 261.998 155.989 259.797C157.622 257.597 160.973 256.399 163.699 256.358Z" fill="#11ABEB"/>
<g opacity="0.1">
<path opacity="0.1" d="M161.908 219.52C160.368 217.592 158.407 215.854 156 215.371C154.044 214.975 152.017 215.453 150.025 215.294C148.265 215.155 146.571 214.518 144.821 214.266C143.233 214.094 141.628 214.155 140.057 214.446C138.567 214.668 137.11 215.075 135.72 215.659C134.97 215.996 134.253 216.404 133.58 216.878C134.817 216.396 136.103 216.051 137.414 215.849C138.983 215.558 140.586 215.498 142.172 215.669C143.928 215.896 145.616 216.528 147.382 216.667C149.368 216.826 151.396 216.353 153.356 216.744C155.764 217.227 157.735 218.97 159.259 220.898C160.681 222.687 161.867 224.985 161.266 227.196C160.948 228.358 160.209 229.376 160.008 230.574C159.808 231.772 159.757 232.26 158.936 233.33C157.883 234.701 156.61 235.888 155.168 236.841C155.564 236.656 155.969 236.471 156.354 236.271C158.398 235.219 160.184 233.726 161.584 231.901C162.4 230.831 162.447 230.358 162.652 229.145C162.857 227.931 163.591 226.934 163.909 225.767C164.515 223.613 163.324 221.315 161.908 219.52Z" fill="black"/>
<path opacity="0.1" d="M152.617 238.549C152.83 238.328 153.062 238.126 153.31 237.947C152.124 238.523 150.877 239.027 149.969 240.004C148.834 241.191 148.429 242.908 148.367 244.554C148.306 246.199 148.598 247.834 148.634 249.474C148.685 251.662 148.317 253.84 147.551 255.89C146.874 257.705 145.893 259.386 145.128 261.17C144.241 263.227 143.645 265.417 142.844 267.52C140.278 274.159 135.722 279.838 129.802 283.777C129.771 283.844 129.746 283.916 129.715 283.983C136.935 280.097 142.53 273.753 145.488 266.096C146.288 263.993 146.884 261.808 147.777 259.741C148.542 257.962 149.522 256.276 150.2 254.461C150.965 252.413 151.333 250.236 151.283 248.05C151.242 246.405 150.97 244.77 151.016 243.124C151.062 241.479 151.483 239.741 152.617 238.549Z" fill="black"/>
</g>
</g>
<defs>
<linearGradient id="paint0_linear" x1="117.034" y1="-440.398" x2="-414.493" y2="558.001" gradientUnits="userSpaceOnUse">
<stop stop-color="#E56EFF"/>
<stop offset="1" stop-color="#8669FF"/>
</linearGradient>
<linearGradient id="paint1_linear" x1="147.145" y1="423.076" x2="147.145" y2="212.332" gradientUnits="userSpaceOnUse">
<stop stop-color="#808080" stop-opacity="0.25"/>
<stop offset="0.54" stop-color="#808080" stop-opacity="0.12"/>
<stop offset="1" stop-color="#808080" stop-opacity="0.1"/>
</linearGradient>
<clipPath id="clip0">
<rect width="580" height="427.534" fill="white"/>
</clipPath>
</defs>
</svg>
